<mxfile host="app.diagrams.net" agent="Mozilla/5.0 (X11; Ubuntu; Linux x86_64; rv:140.0) Gecko/20100101 Firefox/140.0" version="27.2.0">
  <diagram name="Page-1" id="kp85ORi3uPA0NuDMXLG0">
    <mxGraphModel dx="1426" dy="765" grid="1" gridSize="10" guides="1" tooltips="1" connect="1" arrows="1" fold="1" page="1" pageScale="1" pageWidth="850" pageHeight="1100" math="0" shadow="0">
      <root>
        <mxCell id="0" />
        <mxCell id="1" parent="0" />
        <mxCell id="5rZFRly5TMG2aYmMTRii-37" value="" style="rounded=1;whiteSpace=wrap;html=1;fillColor=#d5e8d4;strokeColor=#82b366;" vertex="1" parent="1">
          <mxGeometry x="210" y="370" width="500" height="200" as="geometry" />
        </mxCell>
        <mxCell id="5rZFRly5TMG2aYmMTRii-1" value="" style="html=1;verticalLabelPosition=bottom;align=center;labelBackgroundColor=#ffffff;verticalAlign=top;strokeWidth=2;strokeColor=#000000;shadow=0;dashed=0;shape=mxgraph.ios7.icons.cloud;fillColor=none;" vertex="1" parent="1">
          <mxGeometry x="239" y="60" width="440" height="240" as="geometry" />
        </mxCell>
        <mxCell id="5rZFRly5TMG2aYmMTRii-3" value="Database" style="whiteSpace=wrap;align=center;verticalAlign=middle;fontStyle=1;strokeWidth=3;fillColor=#fff2cc;strokeColor=#d6b656;" vertex="1" parent="1">
          <mxGeometry x="250" y="430" width="90" height="50" as="geometry" />
        </mxCell>
        <mxCell id="5rZFRly5TMG2aYmMTRii-11" value="" style="sketch=0;outlineConnect=0;fontColor=#232F3E;gradientColor=none;fillColor=#232F3D;strokeColor=none;dashed=0;verticalLabelPosition=bottom;verticalAlign=top;align=center;html=1;fontSize=12;fontStyle=0;aspect=fixed;pointerEvents=1;shape=mxgraph.aws4.user;" vertex="1" parent="1">
          <mxGeometry x="445" y="590" width="30" height="30" as="geometry" />
        </mxCell>
        <mxCell id="5rZFRly5TMG2aYmMTRii-21" value="pdfs, docx, xlsx, tex" style="whiteSpace=wrap;align=center;verticalAlign=middle;fontStyle=1;strokeWidth=2;fillColor=#ffe6cc;strokeColor=#d79b00;" vertex="1" parent="1">
          <mxGeometry x="560" y="515" width="70" height="30" as="geometry" />
        </mxCell>
        <mxCell id="5rZFRly5TMG2aYmMTRii-22" value="Embedding model" style="whiteSpace=wrap;align=center;verticalAlign=middle;fontStyle=1;strokeWidth=3;fillColor=#dae8fc;strokeColor=#6c8ebf;" vertex="1" parent="1">
          <mxGeometry x="329" y="210" width="90" height="60" as="geometry" />
        </mxCell>
        <mxCell id="5rZFRly5TMG2aYmMTRii-23" value="LLM" style="whiteSpace=wrap;align=center;verticalAlign=middle;fontStyle=1;strokeWidth=3;fillColor=#dae8fc;strokeColor=#6c8ebf;" vertex="1" parent="1">
          <mxGeometry x="504" y="210" width="90" height="60" as="geometry" />
        </mxCell>
        <mxCell id="5rZFRly5TMG2aYmMTRii-27" value="" style="endArrow=classic;html=1;rounded=0;exitX=0;exitY=0.5;exitDx=0;exitDy=0;entryX=1;entryY=0.5;entryDx=0;entryDy=0;" edge="1" parent="1" source="5rZFRly5TMG2aYmMTRii-41" target="5rZFRly5TMG2aYmMTRii-3">
          <mxGeometry width="50" height="50" relative="1" as="geometry">
            <mxPoint x="395" y="455" as="sourcePoint" />
            <mxPoint x="280" y="216" as="targetPoint" />
          </mxGeometry>
        </mxCell>
        <mxCell id="5rZFRly5TMG2aYmMTRii-29" value="" style="endArrow=classic;html=1;rounded=0;exitX=1;exitY=0.75;exitDx=0;exitDy=0;entryX=0;entryY=0.75;entryDx=0;entryDy=0;" edge="1" parent="1" source="5rZFRly5TMG2aYmMTRii-3" target="5rZFRly5TMG2aYmMTRii-41">
          <mxGeometry width="50" height="50" relative="1" as="geometry">
            <mxPoint x="280" y="224" as="sourcePoint" />
            <mxPoint x="395" y="467.5" as="targetPoint" />
          </mxGeometry>
        </mxCell>
        <mxCell id="5rZFRly5TMG2aYmMTRii-30" value="" style="edgeStyle=none;noEdgeStyle=1;strokeColor=#990000;strokeWidth=2;exitX=0;exitY=0.5;exitDx=0;exitDy=0;entryX=1;entryY=0.5;entryDx=0;entryDy=0;" edge="1" parent="1" source="5rZFRly5TMG2aYmMTRii-21" target="5rZFRly5TMG2aYmMTRii-40">
          <mxGeometry width="100" height="100" relative="1" as="geometry">
            <mxPoint x="515" y="350" as="sourcePoint" />
            <mxPoint x="560" y="470" as="targetPoint" />
          </mxGeometry>
        </mxCell>
        <mxCell id="5rZFRly5TMG2aYmMTRii-32" value="" style="endArrow=classic;html=1;rounded=0;exitX=0.214;exitY=-0.005;exitDx=0;exitDy=0;entryX=0.75;entryY=1;entryDx=0;entryDy=0;exitPerimeter=0;" edge="1" parent="1" target="5rZFRly5TMG2aYmMTRii-22">
          <mxGeometry width="50" height="50" relative="1" as="geometry">
            <mxPoint x="396" y="369" as="sourcePoint" />
            <mxPoint x="429" y="450" as="targetPoint" />
          </mxGeometry>
        </mxCell>
        <mxCell id="5rZFRly5TMG2aYmMTRii-33" value="" style="endArrow=classic;html=1;rounded=0;exitX=0.5;exitY=1;exitDx=0;exitDy=0;entryX=0.17;entryY=0;entryDx=0;entryDy=0;entryPerimeter=0;" edge="1" parent="1" source="5rZFRly5TMG2aYmMTRii-22">
          <mxGeometry width="50" height="50" relative="1" as="geometry">
            <mxPoint x="514" y="420" as="sourcePoint" />
            <mxPoint x="374" y="370" as="targetPoint" />
          </mxGeometry>
        </mxCell>
        <mxCell id="5rZFRly5TMG2aYmMTRii-34" value="" style="endArrow=classic;html=1;rounded=0;entryX=0.75;entryY=1;entryDx=0;entryDy=0;" edge="1" parent="1" target="5rZFRly5TMG2aYmMTRii-23">
          <mxGeometry width="50" height="50" relative="1" as="geometry">
            <mxPoint x="572" y="372" as="sourcePoint" />
            <mxPoint x="439" y="300" as="targetPoint" />
          </mxGeometry>
        </mxCell>
        <mxCell id="5rZFRly5TMG2aYmMTRii-35" value="" style="endArrow=classic;html=1;rounded=0;exitX=0.5;exitY=1;exitDx=0;exitDy=0;entryX=0.518;entryY=0.008;entryDx=0;entryDy=0;entryPerimeter=0;" edge="1" parent="1" source="5rZFRly5TMG2aYmMTRii-23">
          <mxGeometry width="50" height="50" relative="1" as="geometry">
            <mxPoint x="584" y="380" as="sourcePoint" />
            <mxPoint x="548" y="371.5999999999999" as="targetPoint" />
          </mxGeometry>
        </mxCell>
        <mxCell id="5rZFRly5TMG2aYmMTRii-36" value="&lt;font style=&quot;font-size: 18px;&quot;&gt;OLLAMA&lt;/font&gt;" style="text;html=1;align=center;verticalAlign=middle;resizable=0;points=[];autosize=1;strokeColor=none;fillColor=none;" vertex="1" parent="1">
          <mxGeometry x="409" y="160" width="100" height="40" as="geometry" />
        </mxCell>
        <mxCell id="5rZFRly5TMG2aYmMTRii-38" value="&lt;font style=&quot;font-size: 18px;&quot;&gt;CLIENT&lt;/font&gt;" style="text;html=1;align=center;verticalAlign=middle;resizable=0;points=[];autosize=1;strokeColor=none;fillColor=none;" vertex="1" parent="1">
          <mxGeometry x="415" y="380" width="90" height="40" as="geometry" />
        </mxCell>
        <mxCell id="5rZFRly5TMG2aYmMTRii-42" style="edgeStyle=orthogonalEdgeStyle;rounded=0;orthogonalLoop=1;jettySize=auto;html=1;exitX=0.25;exitY=0;exitDx=0;exitDy=0;entryX=0.25;entryY=1;entryDx=0;entryDy=0;" edge="1" parent="1" source="5rZFRly5TMG2aYmMTRii-40" target="5rZFRly5TMG2aYmMTRii-41">
          <mxGeometry relative="1" as="geometry" />
        </mxCell>
        <mxCell id="5rZFRly5TMG2aYmMTRii-40" value="&lt;b&gt;Streamlit&lt;/b&gt;" style="rounded=0;whiteSpace=wrap;html=1;fillColor=#f8cecc;strokeColor=#b85450;" vertex="1" parent="1">
          <mxGeometry x="415" y="510" width="90" height="40" as="geometry" />
        </mxCell>
        <mxCell id="5rZFRly5TMG2aYmMTRii-43" style="edgeStyle=orthogonalEdgeStyle;rounded=0;orthogonalLoop=1;jettySize=auto;html=1;exitX=0.75;exitY=1;exitDx=0;exitDy=0;entryX=0.75;entryY=0;entryDx=0;entryDy=0;" edge="1" parent="1" source="5rZFRly5TMG2aYmMTRii-41" target="5rZFRly5TMG2aYmMTRii-40">
          <mxGeometry relative="1" as="geometry" />
        </mxCell>
        <mxCell id="5rZFRly5TMG2aYmMTRii-41" value="Agents" style="whiteSpace=wrap;align=center;verticalAlign=middle;fontStyle=1;strokeWidth=3;fillColor=#fff2cc;strokeColor=#d6b656;" vertex="1" parent="1">
          <mxGeometry x="415" y="430" width="90" height="50" as="geometry" />
        </mxCell>
      </root>
    </mxGraphModel>
  </diagram>
</mxfile>
